{
    "asset": {
        "version": "2.0",
        "generator": "Open Asset Import Library (assimp v5.0.5eb040c7)"
    },
    "accessors": [
        {
            "bufferView": 0,
            "byteOffset": 0,
            "componentType": 5126,
            "count": 19978,
            "type": "VEC3",
            "max": [
                0.05367790162563324,
                0.1668616235256195,
                0.021260026842355729
            ],
            "min": [
                -0.05765412375330925,
                -0.00008997440454550087,
                -0.053704600781202319
            ]
        },
        {
            "bufferView": 1,
            "byteOffset": 0,
            "componentType": 5126,
            "count": 19978,
            "type": "VEC3",
            "max": [
                0.999793529510498,
                0.9998889565467835,
                0.9999970197677612
            ],
            "min": [
                -0.9999366402626038,
                -0.9998000264167786,
                -0.9998039603233337
            ]
        },
        {
            "bufferView": 2,
            "byteOffset": 0,
            "componentType": 5126,
            "count": 19978,
            "type": "VEC2",
            "max": [
                0.992331862449646,
                0.9938144087791443
            ],
            "min": [
                0.006529523525387049,
                0.011246085166931153
            ]
        },
        {
            "bufferView": 3,
            "byteOffset": 0,
            "componentType": 5125,
            "count": 103203,
            "type": "SCALAR",
            "max": [
                19977
            ],
            "min": [
                0
            ]
        }
    ],
    "buffers": [
        {
            "byteLength": 1052108,
            "uri": "result.bin"
        }
    ],
    "bufferViews": [
        {
            "buffer": 0,
            "byteOffset": 0,
            "byteLength": 239736,
            "target": 34962
        },
        {
            "buffer": 0,
            "byteOffset": 239736,
            "byteLength": 239736,
            "target": 34962
        },
        {
            "buffer": 0,
            "byteOffset": 479472,
            "byteLength": 159824,
            "target": 34962
        },
        {
            "buffer": 0,
            "byteOffset": 639296,
            "byteLength": 412812,
            "target": 34963
        }
    ],
    "materials": [
        {
            "name": "DefaultMaterial",
            "pbrMetallicRoughness": {
                "baseColorFactor": [
                    0.6000000238418579,
                    0.6000000238418579,
                    0.6000000238418579,
                    1.0
                ],
                "metallicFactor": 0.0
            }
        },
        {
            "name": "$Material_0",
            "pbrMetallicRoughness": {
                "baseColorFactor": [
                    0.6000000238418579,
                    0.6000000238418579,
                    0.6000000238418579,
                    1.0
                ],
                "metallicFactor": 0.0
            }
        }
    ],
    "meshes": [
        {
            "name": "meshes_0",
            "primitives": [
                {
                    "mode": 4,
                    "material": 1,
                    "indices": 3,
                    "attributes": {
                        "POSITION": 0,
                        "NORMAL": 1,
                        "TEXCOORD_0": 2
                    }
                }
            ]
        }
    ],
    "nodes": [
        {
            "name": "input.obj",
            "children": [
                1
            ]
        },
        {
            "name": "meshes_0",
            "mesh": 0
        }
    ],
    "scenes": [
        {
            "nodes": [
                0
            ]
        }
    ],
    "scene": 0
}