{
    "asset": {
        "version": "2.0",
        "generator": "Open Asset Import Library (assimp v5.0.5eb040c7)"
    },
    "accessors": [
        {
            "bufferView": 0,
            "byteOffset": 0,
            "componentType": 5126,
            "count": 16540,
            "type": "VEC3",
            "max": [
                0.2315812110900879,
                0.2406550794839859,
                0.1504315584897995
            ],
            "min": [
                -0.23766008019447328,
                -0.00013562798267230392,
                -0.14424024522304536
            ]
        },
        {
            "bufferView": 1,
            "byteOffset": 0,
            "componentType": 5126,
            "count": 16540,
            "type": "VEC3",
            "max": [
                0.9998800158500671,
                0.9998757243156433,
                0.999868631362915
            ],
            "min": [
                -0.9998478293418884,
                -0.999995231628418,
                -0.999982476234436
            ]
        },
        {
            "bufferView": 2,
            "byteOffset": 0,
            "componentType": 5126,
            "count": 16540,
            "type": "VEC2",
            "max": [
                0.9913960099220276,
                0.9926570057868958
            ],
            "min": [
                0.004358999896794558,
                0.006631970405578613
            ]
        },
        {
            "bufferView": 3,
            "byteOffset": 0,
            "componentType": 5125,
            "count": 90147,
            "type": "SCALAR",
            "max": [
                16539
            ],
            "min": [
                0
            ]
        }
    ],
    "buffers": [
        {
            "byteLength": 889868,
            "uri": "result.bin"
        }
    ],
    "bufferViews": [
        {
            "buffer": 0,
            "byteOffset": 0,
            "byteLength": 198480,
            "target": 34962
        },
        {
            "buffer": 0,
            "byteOffset": 198480,
            "byteLength": 198480,
            "target": 34962
        },
        {
            "buffer": 0,
            "byteOffset": 396960,
            "byteLength": 132320,
            "target": 34962
        },
        {
            "buffer": 0,
            "byteOffset": 529280,
            "byteLength": 360588,
            "target": 34963
        }
    ],
    "materials": [
        {
            "name": "DefaultMaterial",
            "pbrMetallicRoughness": {
                "baseColorFactor": [
                    0.6000000238418579,
                    0.6000000238418579,
                    0.6000000238418579,
                    1.0
                ],
                "metallicFactor": 0.0
            }
        },
        {
            "name": "$Material_0",
            "pbrMetallicRoughness": {
                "baseColorFactor": [
                    0.6000000238418579,
                    0.6000000238418579,
                    0.6000000238418579,
                    1.0
                ],
                "metallicFactor": 0.0
            }
        }
    ],
    "meshes": [
        {
            "name": "meshes_0",
            "primitives": [
                {
                    "mode": 4,
                    "material": 1,
                    "indices": 3,
                    "attributes": {
                        "POSITION": 0,
                        "NORMAL": 1,
                        "TEXCOORD_0": 2
                    }
                }
            ]
        }
    ],
    "nodes": [
        {
            "name": "input.obj",
            "children": [
                1
            ]
        },
        {
            "name": "meshes_0",
            "mesh": 0
        }
    ],
    "scenes": [
        {
            "nodes": [
                0
            ]
        }
    ],
    "scene": 0
}